<?xml version="1.0" standalone="no"?>
<!DOCTYPE svg PUBLIC "-//W3C//DTD SVG 20010904//EN"
 "http://www.w3.org/TR/2001/REC-SVG-20010904/DTD/svg10.dtd">
<svg version="1.0" xmlns="http://www.w3.org/2000/svg"
 width="225.000000pt" height="225.000000pt" viewBox="0 0 225.000000 225.000000"
 preserveAspectRatio="xMidYMid meet">
<metadata>
Created by potrace 1.14, written by Peter Selinger 2001-2017
</metadata>
<g transform="translate(0.000000,225.000000) scale(0.100000,-0.100000)"
fill="#000000" stroke="none">
<path d="M105 2231 c-48 -22 -69 -44 -90 -94 -13 -32 -15 -157 -15 -1014 0
-928 1 -980 19 -1018 22 -48 44 -69 94 -90 32 -13 157 -15 1014 -15 928 0 980
1 1018 19 48 22 69 44 90 94 13 32 15 157 15 1012 0 855 -2 980 -15 1012 -21
50 -42 72 -90 94 -38 18 -90 19 -1020 19 -930 0 -982 -1 -1020 -19z m1545
-626 l0 -145 -185 0 -185 0 0 -480 0 -480 -160 0 -160 0 0 480 0 480 -180 0
-180 0 0 145 0 145 525 0 525 0 0 -145z"/>
</g>
</svg>
